<svg id="Capa_1" data-name="Capa 1" xmlns="http://www.w3.org/2000/svg" viewBox="0 0 512 512"><defs><style>.cls-1{fill:#999;}</style></defs><title>icon-gray</title><path class="cls-1" d="M371.35,140.89a29.66,29.66,0,0,0,42.17-.17,30.12,30.12,0,0,0-.19-42.3,29.65,29.65,0,0,0-42.16.17A30.12,30.12,0,0,0,371.35,140.89Zm13.29-29a10.75,10.75,0,0,1,15.32-.06,11.16,11.16,0,0,1,.08,15.67,10.75,10.75,0,0,1-15.32.06A11.16,11.16,0,0,1,384.65,111.85Z" transform="translate(0)"/><path class="cls-1" d="M509.23,131.2L380.8,2.77a9.45,9.45,0,0,0-13.37,0L2.77,367.43a9.45,9.45,0,0,0,0,13.37L131.2,509.23a9.45,9.45,0,0,0,13.37,0L183,470.75h0l47.24-47.24h0l47.23-47.23,0,0,0,0L324.77,329l0,0,0,0L372,281.76h0l47.24-47.24h0l89.94-89.94A9.45,9.45,0,0,0,509.23,131.2ZM412.6,214.46L391.54,193.4a9.45,9.45,0,1,0-13.37,13.37l21.07,21.06-33.88,33.88-21.07-21.07A9.45,9.45,0,1,0,330.92,254L352,275.08,318.11,309,297,287.89a9.45,9.45,0,0,0-13.37,13.37l21.07,21.07-33.88,33.88-21.07-21.07a9.45,9.45,0,1,0-13.37,13.37l21.07,21.07-33.88,33.88-21.07-21.07a9.45,9.45,0,1,0-13.37,13.37l21.07,21.07L176.36,450.7l-21.07-21.07A9.45,9.45,0,0,0,141.92,443L163,464.07l-25.11,25.11L22.82,374.11,374.11,22.82,489.18,137.89Z" transform="translate(0)"/></svg>